<svg width="636" height="1007" viewBox="0 0 636 1007" fill="none" xmlns="http://www.w3.org/2000/svg">
<path d="M322 952.781L322 991.339L177.085 991.339L177.085 905.698L208.506 905.698L208.506 952.781L236.161 952.781L236.161 909.366L267.583 909.366L267.583 952.781L322 952.781ZM322 881.909L177.085 881.909L177.085 842.756L290.38 842.756L290.38 786.951L322 786.951L322 881.909ZM230.809 712.016L177.085 687.037L177.085 644.613L265.402 692.291L322 692.291L322 731.741L266.591 731.741L177.085 779.418L177.085 736.796L230.809 712.016ZM322 542.915L322 628.952L177.085 628.952L177.085 542.915L208.506 542.915L208.506 589.799L231.304 589.799L231.304 546.384L262.726 546.384L262.726 589.799L290.083 589.799L290.083 542.915L322 542.915ZM269.268 478.387L322 478.387L322 517.54L177.085 517.54L177.085 470.061C177.085 430.677 191.358 410.985 219.905 410.985C236.69 410.985 249.675 419.179 258.86 435.567L322 393.341L322 437.748L269.268 468.475L269.268 478.387ZM239.829 478.387L239.829 471.052C239.829 457.374 233.782 450.534 221.689 450.534C211.711 450.534 206.722 457.241 206.722 470.656L206.722 478.387L239.829 478.387ZM177.283 348.539L179.464 347.052C203.649 353.131 222.185 358.979 235.071 364.596L235.071 392.152C214.123 387.658 194.861 384.42 177.283 382.438L177.283 348.539ZM277.99 234.648C286.977 234.648 294.973 236.928 301.978 241.488C308.916 246.047 314.335 252.622 318.233 261.213C322.066 269.803 323.982 279.881 323.982 291.445C323.982 301.093 323.322 309.187 322 315.729C320.612 322.271 318.233 329.078 314.863 336.148L279.973 336.148C283.805 328.681 286.812 320.917 288.993 312.855C291.107 304.793 292.165 297.392 292.165 290.652C292.165 284.837 291.173 280.575 289.191 277.865C287.142 275.156 284.532 273.801 281.36 273.801C279.378 273.801 277.66 274.363 276.206 275.486C274.686 276.544 273.166 278.295 271.646 280.74C270.127 283.119 267.021 289.528 262.329 299.969C258.034 309.419 253.871 316.522 249.84 321.28C245.809 325.972 241.183 329.474 235.963 331.787C230.742 334.034 224.564 335.157 217.427 335.157C204.079 335.157 193.671 330.3 186.204 320.586C178.737 310.873 175.003 297.524 175.003 280.542C175.003 265.541 178.473 250.243 185.411 234.648L215.643 246.642C209.431 260.189 206.326 271.885 206.326 281.731C206.326 286.819 207.218 290.52 209.002 292.833C210.786 295.145 213 296.302 215.643 296.302C218.485 296.302 221.029 294.848 223.275 291.94C225.522 288.967 229.619 280.971 235.566 267.953C241.183 255.464 247.23 246.807 253.706 241.983C260.115 237.093 268.21 234.648 277.99 234.648Z" fill="#A3A566" fill-opacity="0.46"/>
<path d="M430.759 925.849L430.759 919.623C430.759 913.804 429.619 909.451 427.341 906.562C425.021 903.673 421.665 902.228 417.27 902.228C412.835 902.228 409.559 903.449 407.443 905.89C405.327 908.291 404.27 912.075 404.27 917.243L404.27 925.849L430.759 925.849ZM416.599 883.124C426.201 883.124 433.546 886.135 438.632 892.157C443.719 898.139 446.262 906.663 446.262 917.731L446.262 925.849L478 925.849L478 944.77L388.767 944.77L388.767 916.266C388.767 905.443 391.106 897.223 395.786 891.608C400.424 885.952 407.362 883.124 416.599 883.124ZM478 866.278L388.767 866.278L388.767 847.357L478 847.357L478 866.278ZM478 766.73L478 833.136L465.732 833.136L404.392 790.351L404.392 831.977L388.767 831.977L388.767 767.89L400.974 767.89L462.375 810.614L462.375 766.73L478 766.73ZM478 694.342L478 760.749L465.732 760.749L404.392 717.963L404.392 759.589L388.767 759.589L388.767 695.502L400.974 695.502L462.375 738.227L462.375 694.342L478 694.342ZM478 625.495L456.76 631.964L456.76 664.496L478 670.966L478 691.352L388.4 659.857L388.4 636.725L478 605.109L478 625.495ZM440.891 636.481C421.644 642.462 410.76 645.84 408.237 646.613C405.714 647.345 403.72 647.874 402.255 648.2C407.464 649.542 420.342 653.388 440.891 659.735L440.891 636.481Z" fill="#A3A566" fill-opacity="0.46"/>
<path d="M217 811.781L217 850.339L72.085 850.339L72.085 764.698L103.506 764.698L103.506 811.781L131.161 811.781L131.161 768.366L162.583 768.366L162.583 811.781L217 811.781ZM217 740.909L72.085 740.909L72.085 701.756L185.38 701.756L185.38 645.951L217 645.951L217 740.909ZM125.809 571.016L72.0849 546.037L72.0849 503.613L160.402 551.291L217 551.291L217 590.741L161.591 590.741L72.085 638.418L72.0849 595.796L125.809 571.016ZM217 401.915L217 487.952L72.0849 487.952L72.0849 401.915L103.506 401.915L103.506 448.799L126.304 448.799L126.304 405.384L157.726 405.384L157.726 448.799L185.083 448.799L185.083 401.915L217 401.915ZM164.268 337.387L217 337.387L217 376.54L72.0849 376.54L72.0849 329.061C72.0849 289.677 86.3584 269.985 114.905 269.985C131.69 269.985 144.675 278.179 153.86 294.567L217 252.341L217 296.748L164.268 327.475L164.268 337.387ZM134.829 337.387L134.829 330.052C134.829 316.374 128.782 309.534 116.689 309.534C106.711 309.534 101.722 316.241 101.722 329.656L101.722 337.387L134.829 337.387ZM72.2832 207.539L74.4638 206.052C98.6494 212.131 117.185 217.979 130.071 223.596L130.071 251.152C109.123 246.658 89.8606 243.42 72.2832 241.438L72.2832 207.539ZM172.99 93.6484C181.977 93.6484 189.973 95.9282 196.978 100.488C203.916 105.047 209.335 111.622 213.233 120.213C217.066 128.803 218.982 138.881 218.982 150.445C218.982 160.093 218.322 168.187 217 174.729C215.612 181.271 213.233 188.078 209.863 195.148L174.973 195.148C178.805 187.681 181.812 179.917 183.993 171.855C186.107 163.793 187.165 156.392 187.165 149.652C187.165 143.837 186.173 139.575 184.191 136.865C182.142 134.156 179.532 132.801 176.36 132.801C174.378 132.801 172.66 133.363 171.206 134.486C169.686 135.544 168.166 137.295 166.646 139.74C165.127 142.119 162.021 148.528 157.329 158.969C153.034 168.419 148.871 175.522 144.84 180.28C140.809 184.972 136.183 188.474 130.963 190.787C125.742 193.034 119.564 194.157 112.427 194.157C99.0789 194.157 88.6712 189.3 81.2041 179.586C73.7369 169.873 70.0034 156.524 70.0034 139.542C70.0034 124.541 73.4726 109.243 80.4111 93.6484L110.643 105.642C104.431 119.189 101.326 130.885 101.326 140.731C101.326 145.819 102.218 149.52 104.002 151.833C105.786 154.145 108 155.302 110.643 155.302C113.485 155.302 116.029 153.848 118.275 150.94C120.522 147.967 124.619 139.971 130.566 126.953C136.183 114.464 142.23 105.807 148.706 100.983C155.115 96.0934 163.21 93.6484 172.99 93.6484Z" fill="black"/>
<path d="M379.759 894.849L379.759 888.623C379.759 882.804 378.619 878.451 376.341 875.562C374.021 872.673 370.665 871.228 366.27 871.228C361.835 871.228 358.559 872.449 356.443 874.89C354.327 877.291 353.27 881.075 353.27 886.243L353.27 894.849L379.759 894.849ZM365.599 852.124C375.201 852.124 382.546 855.135 387.632 861.157C392.719 867.139 395.262 875.663 395.262 886.731L395.262 894.849L427 894.849L427 913.77L337.767 913.77L337.767 885.266C337.767 874.443 340.106 866.223 344.786 860.608C349.424 854.952 356.362 852.124 365.599 852.124ZM427 835.278L337.767 835.278L337.767 816.357L427 816.357L427 835.278ZM427 735.73L427 802.136L414.732 802.136L353.392 759.351L353.392 800.977L337.767 800.977L337.767 736.89L349.974 736.89L411.375 779.614L411.375 735.73L427 735.73ZM427 663.342L427 729.749L414.732 729.749L353.392 686.963L353.392 728.589L337.767 728.589L337.767 664.502L349.974 664.502L411.375 707.227L411.375 663.342L427 663.342ZM427 594.495L405.76 600.964L405.76 633.496L427 639.966L427 660.352L337.4 628.857L337.4 605.725L427 574.109L427 594.495ZM389.891 605.481C370.644 611.462 359.76 614.84 357.237 615.613C354.714 616.345 352.72 616.874 351.255 617.2C356.464 618.542 369.342 622.388 389.891 628.735L389.891 605.481Z" fill="black"/>
</svg>
